HIERARCHY
ROOT hip
{
	OFFSET 0.000000 0.000000 0.000000
	CHANNELS 6 Xposition Yposition Zposition Xrotation Zrotation Yrotation 
	JOINT abdomen
	{
		OFFSET 0.000000 3.422050 0.000000
		CHANNELS 3 Xrotation Zrotation Yrotation 
		JOINT chest
		{
			OFFSET 0.000000 8.486693 -0.684411
			CHANNELS 3 Xrotation Zrotation Yrotation 
			JOINT neck
			{
				OFFSET 0.000000 10.266162 -0.273764
				CHANNELS 3 Xrotation Zrotation Yrotation 
				JOINT head
				{
					OFFSET 0.000000 3.148285 0.000000
					CHANNELS 3 Xrotation Zrotation Yrotation 
					End Site
					{
						OFFSET 0.000000 3.148289 0.000000
					}
				}
			}
			JOINT lCollar
			{
				OFFSET 3.422053 6.707223 -0.821293
				CHANNELS 3 Yrotation Zrotation Xrotation 
				JOINT lShldr
				{
					OFFSET 3.285171 0.000000 0.000000
					CHANNELS 3 Zrotation Yrotation Xrotation 
					JOINT lForeArm
					{
						OFFSET 10.129278 0.000000 0.000000
						CHANNELS 3 Yrotation Zrotation Xrotation 
						JOINT lHand
						{
							OFFSET 8.486692 0.000000 0.000000
							CHANNELS 3 Zrotation Yrotation Xrotation 
							End Site
							{
								OFFSET 4.106464 0.000000 0.000000
							}
						}
					}
				}
			}
			JOINT rCollar
			{
				OFFSET -3.558935 6.707223 -0.821293
				CHANNELS 3 Yrotation Zrotation Xrotation 
				JOINT rShldr
				{
					OFFSET -3.148289 0.000000 0.000000
					CHANNELS 3 Zrotation Yrotation Xrotation 
					JOINT rForeArm
					{
						OFFSET -10.266159 0.000000 0.000000
						CHANNELS 3 Yrotation Zrotation Xrotation 
						JOINT rHand
						{
							OFFSET -8.349810 0.000000 0.000000
							CHANNELS 3 Zrotation Yrotation Xrotation 
							End Site
							{
								OFFSET -4.106464 0.000000 0.000000
							}
						}
					}
				}
			}
		}
	}
	JOINT lThigh
	{
		OFFSET 5.338403 -1.642589 1.368821
		CHANNELS 3 Xrotation Zrotation Yrotation 
		JOINT lShin
		{
			OFFSET -2.053232 -20.121670 0.000000
			CHANNELS 3 Xrotation Zrotation Yrotation 
			JOINT lFoot
			{
				OFFSET 0.000000 -19.300380 -1.231939
				CHANNELS 3 Xrotation Yrotation Zrotation 
				End Site
				{
					OFFSET 0.000000 -2.463878 4.653993
				}
			}
		}
	}
	JOINT rThigh
	{
		OFFSET -5.338403 -1.642589 1.368821
		CHANNELS 3 Xrotation Zrotation Yrotation 
		JOINT rShin
		{
			OFFSET 2.053232 -20.121670 0.000000
			CHANNELS 3 Xrotation Zrotation Yrotation 
			JOINT rFoot
			{
				OFFSET 0.000000 -19.300380 -1.231939
				CHANNELS 3 Xrotation Yrotation Zrotation 
				End Site
				{
					OFFSET 0.000000 -2.463878 4.653993
				}
			}
		}
	}
}
MOTION
Frames: 18
Frame Time: 0.049989
0.000000 43.528500 0.000000 0.000000 0.000000 0.000000 0.000000 0.000000 0.000000 0.000000 0.000000 0.000000 0.000000 0.000000 0.000000 0.000000 0.000000 0.000000 0.000000 0.000000 0.000000 0.000000 0.000000 0.000000 0.000000 0.000000 0.000000 0.000000 0.000000 0.000000 0.000000 0.000000 0.000000 0.000000 0.000000 0.000000 0.000000 0.000000 0.000000 0.000000 0.000000 0.000000 0.000000 0.000000 0.000000 0.000000 0.000000 0.000000 0.000000 0.000000 0.000000 0.000000 0.000000 0.000000 0.000000 0.000000 0.000000 0.000000 0.000000 0.000000 
0.000000 38.377090 -5.583940 -18.997673 0.000000 180.000000 -10.822397 -2.636353 -0.813130 22.353546 -3.113252 -0.221233 15.996989 0.000000 0.000000 10.999558 0.000000 0.000000 -21.540989 -35.038292 16.920458 -37.159782 28.728521 -3.566858 -53.767982 6.659939 -28.281069 -16.255636 -5.194238 0.114653 21.591686 38.286263 16.555107 37.175262 -27.941914 -3.801976 53.176643 -4.458964 -28.318035 16.252048 5.190772 0.113998 -59.994682 23.836384 5.578942 38.115658 -11.987438 4.864887 1.244311 0.098969 -17.303276 -60.001862 -23.858709 -5.593990 38.134792 11.987081 -4.859558 1.223549 -0.102399 17.278496 
0.000000 38.377090 -5.614311 -18.442478 0.001168 -179.992813 -11.123734 -2.638236 -0.812139 22.353544 -3.113252 -0.221233 15.118669 0.000000 0.000000 10.298940 0.000000 0.000000 -21.882019 -34.460205 16.743431 -37.876484 29.057169 -3.867025 -54.104248 6.435586 -28.238766 -16.255636 -5.194238 0.114653 21.972733 37.665718 16.323269 37.848633 -28.300028 -4.074308 53.609550 -4.243322 -28.277908 16.252048 5.190772 0.113998 -59.386078 23.903860 5.699914 38.115658 -11.987438 4.864886 1.244311 0.098969 -17.303276 -59.392273 -23.925995 -5.715123 38.134792 11.987080 -4.859558 1.223549 -0.102399 17.278496 
0.000000 38.377090 -5.644683 -17.887379 0.002268 -179.985596 -11.425105 -2.640113 -0.811138 22.353546 -3.113252 -0.221233 14.237765 0.000000 0.000000 9.596863 0.000000 0.000000 -22.218723 -33.880962 16.571676 -38.597881 29.382689 -4.173033 -54.440262 6.210944 -28.197792 -16.255636 -5.194238 0.114653 22.347706 37.043617 16.098391 38.526615 -28.655499 -4.352504 54.042309 -4.027323 -28.239414 16.252048 5.190772 0.113998 -58.776775 23.970192 5.821774 38.115658 -11.987437 4.864887 1.244311 0.098969 -17.303276 -58.781960 -23.992119 -5.837143 38.134792 11.987080 -4.859558 1.223549 -0.102399 17.278496 
0.000000 38.377090 -5.675055 -17.332090 0.003297 -179.978363 -11.726505 -2.641985 -0.810127 22.353546 -3.113253 -0.221233 13.354381 0.000000 0.000000 8.893376 0.000000 0.000000 -22.551245 -33.300652 16.405077 -39.323990 29.704992 -4.484892 -54.776043 5.986031 -28.158159 -16.255638 -5.194239 0.114653 22.716801 36.420063 15.880284 39.209221 -29.008217 -4.636585 54.474907 -3.810984 -28.202553 16.252048 5.190772 0.113998 -58.166794 24.035357 5.944503 38.115658 -11.987438 4.864887 1.244311 0.098969 -17.303276 -58.170975 -24.057079 -5.960035 38.134792 11.987081 -4.859558 1.223549 -0.102399 17.278498 
0.000000 38.377090 -5.705427 -16.776651 0.004257 -179.971130 -12.027930 -2.643852 -0.809106 22.353546 -3.113253 -0.221233 12.468605 0.000000 0.000000 8.188525 0.000000 0.000000 -22.879709 -32.719334 16.243513 -40.054775 30.023954 -4.802590 -55.111576 5.760856 -28.119864 -16.255638 -5.194238 0.114653 23.080200 35.795116 15.668768 39.896473 -29.358093 -4.926572 54.907379 -3.594331 -28.167341 16.252048 5.190772 0.113998 -57.556160 24.099340 6.068084 38.115658 -11.987438 4.864887 1.244311 0.098969 -17.303276 -57.559345 -24.120855 -6.083780 38.134792 11.987081 -4.859558 1.223549 -0.102399 17.278496 
0.000000 38.377090 -5.735798 -16.221075 0.005147 -179.963882 -12.329375 -2.645713 -0.808074 22.353546 -3.113252 -0.221233 11.580536 0.000000 0.000000 7.482360 0.000000 0.000000 -23.204208 -32.137054 16.086872 -40.790241 30.339493 -5.126128 -55.446857 5.535433 -28.082897 -16.255636 -5.194238 0.114653 23.438087 35.168884 15.463670 40.588398 -29.705032 -5.222480 55.339680 -3.377378 -28.133764 16.252048 5.190772 0.113998 -56.944927 24.162136 6.192503 38.115658 -11.987438 4.864887 1.244311 0.098969 -17.303276 -56.947113 -24.183445 -6.208357 38.134792 11.987081 -4.859558 1.223549 -0.102399 17.278496 
0.000000 38.377090 -5.766170 -15.665398 0.005966 -179.956635 -12.630841 -2.647570 -0.807034 22.353544 -3.113252 -0.221233 10.690271 0.000000 0.000000 6.774934 0.000000 0.000000 -23.524889 -31.553904 15.935057 -41.530376 30.651495 -5.455494 -55.781925 5.309779 -28.047276 -16.255636 -5.194238 0.114653 23.790640 34.541451 15.264826 41.284962 -30.048916 -5.524322 55.771805 -3.160147 -28.101828 16.252048 5.190772 0.113998 -56.333122 24.223728 6.317731 38.115658 -11.987438 4.864887 1.244311 0.098969 -17.303276 -56.334293 -24.244812 -6.333744 38.134792 11.987081 -4.859558 1.223549 -0.102399 17.278496 
0.000000 38.377090 -5.796542 -15.109637 0.006715 -179.949371 -12.932316 -2.649420 -0.805983 22.353542 -3.113252 -0.221233 9.797910 0.000000 0.000000 6.066297 0.000000 0.000000 -23.841850 -30.969933 15.787962 -42.275154 30.959871 -5.790676 -56.116734 5.083903 -28.012980 -16.255636 -5.194237 0.114653 24.138018 33.912884 15.072071 41.986221 -30.389664 -5.832111 56.203789 -2.942659 -28.071541 16.252048 5.190772 0.113998 -55.720776 24.284103 6.443754 38.115658 -11.987437 4.864886 1.244311 0.098969 -17.303276 -55.720955 -24.304972 -6.459923 38.134789 11.987079 -4.859556 1.223549 -0.102399 17.278496 
0.000000 38.377090 -5.826914 -14.553829 0.007394 -179.942108 -13.233805 -2.651267 -0.804922 22.353546 -3.113253 -0.221233 8.903553 0.000000 0.000000 5.356496 0.000000 0.000000 -24.155197 -30.385206 15.645484 -43.024551 31.264515 -6.131655 -56.451313 4.857819 -27.980022 -16.255636 -5.194238 0.114653 24.480398 33.283298 14.885259 42.692158 -30.727167 -6.145853 56.635601 -2.724935 -28.042902 16.252048 5.190772 0.113998 -55.107956 24.343256 6.570551 38.115658 -11.987438 4.864887 1.244311 0.098969 -17.303278 -55.107124 -24.363905 -6.586878 38.134792 11.987081 -4.859558 1.223549 -0.102399 17.278498 
0.000000 38.377090 -5.857285 -13.997991 0.008002 -179.934814 -13.535294 -2.653106 -0.803852 22.353546 -3.113252 -0.221233 8.007305 0.000000 0.000000 4.645588 0.000000 0.000000 -24.465036 -29.799784 15.507522 -43.778542 31.565321 -6.478410 -56.785675 4.631544 -27.948408 -16.255636 -5.194238 0.114653 24.817923 32.652737 14.704226 43.402760 -31.061323 -6.465546 57.067234 -2.506994 -28.015905 16.252048 5.190772 0.113998 -54.494644 24.401159 6.698099 38.115658 -11.987438 4.864887 1.244311 0.098969 -17.303276 -54.492836 -24.421591 -6.714578 38.134792 11.987081 -4.859558 1.223549 -0.102399 17.278498 
0.000000 38.377090 -5.887657 -13.442151 0.008540 -179.927536 -13.836786 -2.654941 -0.802772 22.353546 -3.113252 -0.221233 7.109270 0.000000 0.000000 3.933622 0.000000 0.000000 -24.771473 -29.213724 15.373982 -44.537098 31.862194 -6.830915 -57.119793 4.405088 -27.918119 -16.255636 -5.194238 0.114653 25.150755 32.021305 14.528839 44.118042 -31.392044 -6.791198 57.498711 -2.288855 -27.990561 16.252048 5.190772 0.113998 -53.880939 24.457830 6.826379 38.115658 -11.987438 4.864887 1.244311 0.098969 -17.303276 -53.878124 -24.478033 -6.843016 38.134792 11.987081 -4.859558 1.223549 -0.102399 17.278496 
0.000000 38.377090 -5.918029 -12.886339 0.009007 -179.920242 -14.138268 -2.656769 -0.801683 22.353546 -3.113252 -0.221233 6.209550 0.000000 0.000000 3.220652 0.000000 0.000000 -25.074604 -28.627096 15.244781 -45.300190 32.155045 -7.189140 -57.453674 4.178464 -27.889166 -16.255636 -5.194238 0.114653 25.479033 31.389071 14.358952 44.838009 -31.719238 -7.122808 57.929996 -2.070539 -27.966858 16.252048 5.190772 0.113998 -53.266850 24.513239 6.955371 38.115658 -11.987437 4.864886 1.244311 0.098969 -17.303276 -53.263035 -24.533207 -6.972154 38.134792 11.987080 -4.859558 1.223549 -0.102399 17.278496 
0.000000 38.377090 -5.948401 -12.330578 0.009403 -179.912949 -14.439754 -2.658592 -0.800584 22.353546 -3.113252 -0.221233 5.308255 0.000000 0.000000 2.506731 0.000000 0.000000 -25.374527 -28.039949 15.119820 -46.067760 32.443764 -7.553049 -57.787357 3.951691 -27.861549 -16.255636 -5.194238 0.114653 25.802902 30.756117 14.194432 45.562634 -32.042789 -7.460362 58.361134 -1.852070 -27.944817 16.252048 5.190772 0.113998 -52.652409 24.567379 7.085053 38.115658 -11.987436 4.864887 1.244311 0.098969 -17.303276 -52.647606 -24.587114 -7.101985 38.134792 11.987079 -4.859556 1.223549 -0.102399 17.278494 
0.000000 38.377090 -5.978773 -11.774898 0.009729 -179.905655 -14.741217 -2.660408 -0.799475 22.353546 -3.113253 -0.221233 4.405493 0.000000 0.000000 1.791913 0.000000 0.000000 -25.671343 -27.452353 14.999021 -46.839783 32.728260 -7.922601 -58.120800 3.724774 -27.835266 -16.255638 -5.194238 0.114653 26.122513 30.122528 14.035158 46.291912 -32.362610 -7.803854 58.792068 -1.633459 -27.924421 16.252048 5.190772 0.113998 -52.037689 24.620247 7.215398 38.115658 -11.987438 4.864887 1.244311 0.098969 -17.303278 -52.031887 -24.639746 -7.232478 38.134792 11.987081 -4.859558 1.223549 -0.102399 17.278496 
0.000000 38.377090 -6.009144 -11.219317 0.009983 -179.898361 -15.042667 -2.662219 -0.798356 22.353546 -3.113252 -0.221233 3.501368 0.000000 0.000000 1.076251 0.000000 0.000000 -25.965141 -26.864372 14.882306 -47.616188 33.008423 -8.297753 -58.454021 3.497733 -27.810316 -16.255636 -5.194238 0.114653 26.437986 29.488365 13.880990 47.025806 -32.678593 -8.153263 59.222828 -1.414736 -27.905676 16.252048 5.190772 0.113998 -51.422680 24.671825 7.346388 38.115658 -11.987438 4.864887 1.244311 0.098969 -17.303278 -51.415890 -24.691082 -7.363614 38.134792 11.987081 -4.859558 1.223549 -0.102399 17.278496 
0.000000 38.377090 -6.039516 -10.663870 0.010167 -179.891068 -15.344100 -2.664025 -0.797229 22.353546 -3.113252 -0.221233 2.595992 0.000000 0.000000 0.359800 0.000000 0.000000 -26.256002 -26.276043 14.769581 -48.396950 33.284187 -8.678458 -58.787029 3.270578 -27.786692 -16.255638 -5.194238 0.114653 26.749445 28.853710 13.731814 47.764313 -32.990646 -8.508576 59.653397 -1.195917 -27.888575 16.252048 5.190772 0.113998 -50.807457 24.722105 7.477999 38.115658 -11.987438 4.864887 1.244311 0.098969 -17.303276 -50.799671 -24.741121 -7.495371 38.134792 11.987081 -4.859558 1.223549 -0.102399 17.278496 
0.000000 38.377090 -6.069888 -10.108576 0.010280 -179.883774 -15.645508 -2.665824 -0.796092 22.353546 -3.113252 -0.221233 1.689479 0.000000 0.000000 -0.357385 0.000000 0.000000 -26.544008 -25.687433 14.660774 -49.181984 33.555443 -9.064653 -59.119823 3.043326 -27.764404 -16.255636 -5.194238 0.114653 27.057030 28.218637 13.587517 48.507412 -33.298687 -8.869768 60.083782 -0.977020 -27.873127 16.252048 5.190772 0.113998 -50.192047 24.771091 7.610214 38.115658 -11.987438 4.864887 1.244311 0.098969 -17.303276 -50.183270 -24.789854 -7.627725 38.134792 11.987081 -4.859558 1.223549 -0.102399 17.278494 
